<mxfile modified="2021-06-21T03:24:49.736Z" host="app.diagrams.net" agent="5.0 (Windows NT 10.0; Win64; x64) AppleWebKit/537.36 (KHTML, like Gecko) Chrome/93.0.4531.0 Safari/537.36 Edg/93.0.916.1" etag="HUCSN__8bjChpsu0nAcD" version="14.4.4" type="github">
  <diagram id="WI9T0HZ2pTsCkuznbFz-" name="Page-1">
    <mxGraphModel dx="1422" dy="804" grid="1" gridSize="10" guides="1" tooltips="1" connect="1" arrows="1" fold="1" page="1" pageScale="1" pageWidth="827" pageHeight="1169" math="0" shadow="0">
      <root>
        <mxCell id="0" />
        <mxCell id="1" parent="0" />
        <mxCell id="28heIlWIprtDJxRmpmQK-6" value="" style="rounded=0;whiteSpace=wrap;html=1;fillColor=#f5f5f5;strokeColor=none;fontColor=#333333;labelBackgroundColor=none;" parent="1" vertex="1">
          <mxGeometry x="186" y="362" width="344" height="288" as="geometry" />
        </mxCell>
        <mxCell id="28heIlWIprtDJxRmpmQK-7" value="1" style="ellipse;whiteSpace=wrap;html=1;aspect=fixed;fillColor=#4D9900;strokeColor=none;labelBackgroundColor=none;" parent="1" vertex="1">
          <mxGeometry x="240" y="390" width="23" height="23" as="geometry" />
        </mxCell>
        <mxCell id="rI1JX8pW7Fap40Gf1UJg-1" value="" style="rounded=0;whiteSpace=wrap;html=1;fillColor=#EAEDED;fontSize=22;fontColor=#FFFFFF;strokeColor=none;labelBackgroundColor=none;" parent="1" vertex="1">
          <mxGeometry x="550" y="362" width="539" height="288" as="geometry" />
        </mxCell>
        <mxCell id="rI1JX8pW7Fap40Gf1UJg-2" value="&lt;b&gt;&amp;lt;prj&amp;gt;-iothub-&amp;lt;env&amp;gt;&lt;/b&gt;: Serves as the main IoT Hub for communication with IoT Edge devices, including Azure Percept" style="text;html=1;align=left;verticalAlign=top;spacingTop=-4;fontSize=14;labelBackgroundColor=none;whiteSpace=wrap;" parent="1" vertex="1">
          <mxGeometry x="619.5" y="373" width="449" height="49" as="geometry" />
        </mxCell>
        <mxCell id="rI1JX8pW7Fap40Gf1UJg-3" value="&lt;b&gt;&amp;lt;prj&amp;gt;stg&amp;lt;env&amp;gt;xxxx&lt;/b&gt;: Serves as the main storage account for storing IoT Device Images in the /Updates container." style="text;html=1;align=left;verticalAlign=top;spacingTop=-4;fontSize=14;labelBackgroundColor=none;whiteSpace=wrap;" parent="1" vertex="1">
          <mxGeometry x="618.5" y="422" width="450" height="50" as="geometry" />
        </mxCell>
        <mxCell id="rI1JX8pW7Fap40Gf1UJg-4" value="&lt;b&gt;&amp;lt;prj&amp;gt;-dps-&amp;lt;env&amp;gt;&lt;/b&gt;: Allows zero-touch provisioning of IoT Edge devices allowing for easier and consistent setup of multiple IoT Edge devices, including the Azure Percept Device Kit.." style="text;html=1;align=left;verticalAlign=top;spacingTop=-4;fontSize=14;labelBackgroundColor=none;whiteSpace=wrap;" parent="1" vertex="1">
          <mxGeometry x="618.5" y="472" width="450" height="50" as="geometry" />
        </mxCell>
        <mxCell id="rI1JX8pW7Fap40Gf1UJg-5" value="&lt;b&gt;&amp;lt;prj&amp;gt;-adu-&amp;lt;env&amp;gt;&lt;/b&gt;: Updates IoT Edge devices attached to IoT Hub using Over The Air (OTA) capability. There is currently a limit of one Device Update account per Subscription. Multiple Device Update Instances (ADUI) can be created to serve multiple IoT Hub instances. In the future we may want to break the Device Update Account from this Resource Group." style="text;html=1;align=left;verticalAlign=top;spacingTop=-4;fontSize=14;labelBackgroundColor=none;whiteSpace=wrap;" parent="1" vertex="1">
          <mxGeometry x="618.5" y="532" width="450" height="108" as="geometry" />
        </mxCell>
        <mxCell id="rI1JX8pW7Fap40Gf1UJg-9" value="1" style="ellipse;whiteSpace=wrap;html=1;aspect=fixed;fillColor=#4D9900;strokeColor=none;labelBackgroundColor=none;" parent="1" vertex="1">
          <mxGeometry x="570" y="379.5" width="23" height="23" as="geometry" />
        </mxCell>
        <mxCell id="rI1JX8pW7Fap40Gf1UJg-10" value="2" style="ellipse;whiteSpace=wrap;html=1;aspect=fixed;fillColor=#4D9900;strokeColor=none;labelBackgroundColor=none;" parent="1" vertex="1">
          <mxGeometry x="570" y="426.5" width="23" height="23" as="geometry" />
        </mxCell>
        <mxCell id="rI1JX8pW7Fap40Gf1UJg-11" value="3" style="ellipse;whiteSpace=wrap;html=1;aspect=fixed;fillColor=#4D9900;strokeColor=none;labelBackgroundColor=none;" parent="1" vertex="1">
          <mxGeometry x="570" y="479.5" width="23" height="23" as="geometry" />
        </mxCell>
        <mxCell id="rI1JX8pW7Fap40Gf1UJg-12" value="4" style="ellipse;whiteSpace=wrap;html=1;aspect=fixed;fillColor=#4D9900;strokeColor=none;labelBackgroundColor=none;" parent="1" vertex="1">
          <mxGeometry x="569.9999999999995" y="540.5" width="23" height="23" as="geometry" />
        </mxCell>
        <mxCell id="4yvTIxeOU97vgJ16sdvQ-1" value="&lt;b style=&quot;font-size: 14px;&quot;&gt;&amp;lt;prj&amp;gt;-dps-&amp;lt;env&amp;gt;&lt;/b&gt;&lt;br style=&quot;font-size: 14px;&quot;&gt;Device Provisioning&lt;br style=&quot;font-size: 14px;&quot;&gt;Service" style="aspect=fixed;html=1;points=[];align=center;image;fontSize=14;image=img/lib/mscae/Device_Provisioning_Services.svg;labelBackgroundColor=none;" parent="1" vertex="1">
          <mxGeometry x="260" y="534.5" width="48" height="50" as="geometry" />
        </mxCell>
        <mxCell id="4yvTIxeOU97vgJ16sdvQ-2" value="&lt;b style=&quot;font-size: 14px;&quot;&gt;&amp;lt;prj&amp;gt;-iothub-&amp;lt;env&amp;gt;&lt;/b&gt;&lt;br style=&quot;font-size: 14px;&quot;&gt;IoT Hub" style="aspect=fixed;html=1;points=[];align=center;image;fontSize=14;image=img/lib/mscae/Azure_IoT_Hub.svg;labelBackgroundColor=none;" parent="1" vertex="1">
          <mxGeometry x="249" y="408.5" width="50" height="50" as="geometry" />
        </mxCell>
        <mxCell id="4yvTIxeOU97vgJ16sdvQ-3" value="&lt;b style=&quot;font-size: 14px;&quot;&gt;&amp;lt;prj&amp;gt;stg&amp;lt;env&amp;gt;xxxx&lt;/b&gt;&lt;br style=&quot;font-size: 14px;&quot;&gt;Storage" style="aspect=fixed;html=1;points=[];align=center;image;fontSize=14;image=img/lib/mscae/ClassicStorage.svg;spacingTop=3;labelBackgroundColor=none;" parent="1" vertex="1">
          <mxGeometry x="413" y="412" width="50" height="43" as="geometry" />
        </mxCell>
        <mxCell id="4yvTIxeOU97vgJ16sdvQ-4" value="" style="shape=image;aspect=fixed;image=data:image/png,iVBORw0KGgoAAAANSUhEUgAAAFwAAABhCAYAAABbC8YrAAAgAElEQVR4Xu19B3gc1bn2e6ZtL1qVVbEk9yYbyx13m14DhACBwE9ySSOEJIR770/apSWXm+TehBISIIEQAgkxBAKEUEIxrti423K3imXJ6tq+O7szc/7nm9mV14qwZVvohv9heIxWu7Nz5rznO+/3ft935ojhk2NYEWDD2tonjeETwIfZCD4B/BPAhwYBzjkZk2lQdwO4i/5HPwHceaf5kjPG+NC0Nvir/H9r4Zzz0qaIOnN3zCa+vLEVHxxKYGNzGosnF+KW6Qo/f0LBLr+dHRw8VENz5scecM65CMB25AiwCUfwyiZg0ybgJzf4boymMv/elHQpq/a0oa4zid3tKcwaXYrPTRb0WSNs/7VopOeXQwPj4K/ysQOccy6Y7JCliO98H5dxGOfUhYA3d/ZibUMM29syKA+Ic0cGi2ZGDRsaO2PoiGnoiOkYX1WMxSUqKpX4XXeeG8xeZfCAne6ZHyvAQ6FQQcJw1dSpkvTS+4fRFtcdF4/zfisQLDivoYdjy6Fe7G5X0dCroTOaAtQ0UTUgMvMHHaWlhRjvSPBSn3LH8usqf3K6AJ7s9z8egHPOlgPCqNbkVZ3xzP89nHTaV+xqx97OtBBPa5Wyw+NIZTii6QziGQOpDJAhsDNZwIUs4DrH5HFBnFOu8QkljjtumRf4BPCBLGZjKy/a0x694lBC+FxzVFjSk7bhQGcEbdEMWjpCQCQBEKgys37Sv/6mpBtAUsc588fg3+a7+URf5q7qAts9J2uhp3v+x8LCNx9RJx/sSj21PuKd+Yu/H0QqnATsIsCzPJH7SWgM1CMOCGDwiCLOnlYU+sE8597aSseDjLE/nC6AJ/v9jwXg+4+ok/eEUk+vCrun/eSVAwJCCcApDWzJAyGgcyh2BbWVfkwtNtZ94QzvDxeMdm5gjHWdLGCne/7HBHBe3ByPXfHY9syVf9nSvkzVRJlz4udBHhqH7FAws9qLi8c66742x/lkwCH9GUCjOSmGMQD6WABuhoWcCxf8tulrXTHt/mbNK3YcaSekiCtOfOiWUin1SLhmZplx6WghHfRKP0877E/M8Jpf72SMhU98odM/42MDOHX1b3Xd/1LXbTz2UpMirN7cyCAJluQ70UFUzwCJAaNLvJhc5kLQrjZfMLV0/7JKwC2zp1947rmnrr76av1Elzrdzwdxt6fbxNB9n3O++NX98Rt/vi521rr9kZFJTQPnxsCOcqBmDQBpHTRQ40YU4NLpFZhWCvgEbQ1Ppx5cONn9WjFj0aG743+80scKcLr9h1bHy1cdCv2iKaFcsaU5hHQ8ZZnuYA/DUjaCKMGhyPA6RCwc4zcm+tV9JXbhP65ZWLyqGKCh6WaMDbnFn8SdDrZHQ3ce8fZAV3t3X/TJlV32G+5f0YJQR8SSiB/Wk1w+MP9zeo+Az9DsEFBWFkClR0OVh6//2tKqloUlPCLLwkMAtjLGCPwhO/5pAeecKxqwiAGBHgAH0kCbDoxV4J8M/YtrW9mc77zegk0HwkhZUmNA0M0O6hxc49bnNBsoMModBH7aABQJU6r8uGZuGWb505g1QnqkyCY8CYDk45Clcf9pAOec27oAZS2ANQAuSWFGgOn3+iU2ocUAmlNAjwEUKWBzFHhTUd32x81hPLOlF3vaVAvMfAdqcMiSiHK/DZIIdMUySKZ1ZDROiufYATJphkFRZBR67Jhb5cL/meWPzSljfy1yCXfagINDRS//q4BTkeDurF1elcKNMcVYuE0DdkaBTIZVVCo4vzzAEAFAmi3KAT8DztCBKZqO9s407l/VhT9ti8Ag6ZfjcsJP1eArcODGM8uNRSMdaO6ICB8ciuO9xgTaulWQr+U24eisoO/QNTQDbr8dyyaV4dxRYmTRCOHVKcXSw5IkrR0KS/9fA5zAXp/G1FYFwT0x+IK6/m2XT5zXRNFIEuhJA7EUoOuW1CYWyHDARtJOBi7zAmeA4/U9Kn7+fgjbD/UindIAWTAzgzIkeJw8dttC/6Y7lhSLoQxm7mpNOd7aF8P7zZQbV9ES1cDJunMNEM2Y/G4AGrBwajmumWLDBeOdj4/1CZQ733K6oA874NmCAXtVRVVcNe6JujFvWwhSREW54hUk1QDS5M90QFUByjkRHnSjJhZZ8M/xAJfbgWRXIv3rD3r5U1vCcndIF8wEFhNQVOhHEY81nVlh++7Dn6u2H9CM+4JgJXrKQHOPihd2RPBcXQzNUQ26STN58pIGQeOw2xXUVHtx++Jg5PLR/G2HIv4AwO7TcaTDBjhZdA/g0TO4cZ9ojPpLCAFouMJVIniJozt6gWTKSvj1+bV+ropuNkNswYEaPzDbMBILnHj80dc6uv6wLfL5Xs0+KhKJmCMzaXQBLqoWuq6b5vlzuNyprI3hM0FZ8Ex3AmMAtLWpePNAEm+3wlhTH2E9XRHG6YuKNUPMI6kBdhmfOXMkPjtRSC6qVF4sdAlPS4y9dqqyZdgAr+c82KXjoqhufL9FEUavigEdCZhcSjdhWnC2ozkRkZ8E7BMVlNrmQIEPcCeN6IwC4S7n9t62d/bFv7cj5Z28oykEGQYuHG/HTTM9qBnpwloOLO8BenVgqg1Y5ATmOIBoT7rnhS2hfS/uihR3Zmxj2iJpJOMJy/mS6sk6U1lkuGJ2Jb4yw4mJBZm7K3wOqkWf0vGRAp7V0cIKskoVX281jFsPMWF0CwciGpBMAoaW7V/29o+nv/JvVhMBh25oC704cJ4Atb0tNeaFXQnnq7sjulth+Jdaj3D59AKx1yPib0lgQxiI6IBHAII2YEEAKE3xDenezH0HdvfWNMT1/3jnsCjvqu9ihkC8nm2NOEzTMao6iHPGOFBlV3884ezi7119ikHRRwY4yTwdOI8DtX83wLaHjCsSAaF2bxjojAKuAdIgZt84QOFdNiC0okIGUKXYpJrswBDXKyIwpRC4VAaqdGD7rq7Xbnul841it4QfXVyx2Fdm/9R6RZDe7gKS3LqmRmJEAMpdQLlg7B3pwJ/O0/i2ddvC0988rF9f16tUf3CwjfGUajVAh8EhSQoCLoaza0pWXDvaeFZAdPnFU6tCJ+tEP0rAlbBuPNwpCl9cpQOre4BuwxIA1Gj/ENJ0hgCcDHBQ8SbvBAoI4xxI5Zk/vTR/ZcDMQmCODhRy48E/JIRHYgCWOYzro2n86z6HoOzutgaL4Ms5XlKARW6DV3PwER78T2XEeLVjT+iylR3KFa/v7R3ZHc5AzaSyfJeVSLKAS6aVY9kIvemssd67akvlNwC0n4wT/WgA55w1ALZtMeM3Kbfwue0c2N0DpFUL1P4JvpxlB0RgkgyMV4BCQid7d90asEsF9mtAjAYtOzgEHklFjwIU01oJ0dibkti+hBk98tGGhkkJSRASaQvwXGfpY41miAModALlitFYmcZbExLJ519anZmyuT1894GE3dF8uFPok4w0QmAoC3ixZKwb35rv2T27VHpCEPAQY0wdLKF/JIA/2snLDBFXtjj0zx1WxTNDVM8liTzAXeWM1s6ACQowz2b9dGdjEvo8agD70sAaFahLWypFybsWzYAMA/xuwOeyBiGaAJJxQKR4iIRHf8XDLNANAagqBYpiRmKcEz+zNUQ2/Xlt78yN3fbzuiLJOXE1DZ2CgZwujWcwcWIZ7vtUEFOciSfGFjq/eDK0MuSAN4d54H0bPnswZfyg1Ybi+rAgUvrHtOqBOm0GKUC5BMyxAzNsgF+wuJwWq+Xoh0BenQLeTFhqgwYoPx1ClxYph5X9DhmkkQ2a6L2BADdpic4TLEsfLxvJiTKekBqjLzy9OvyFRlW5fltrDGouI2nOHB0lJT5cOMmPGUE8++nJ9h+M8NpaGGPJwVj5kAFuruU7DPvuInx7j2Jcu0YTaprTQCJylEYGUiBkjQTeOAWYawdqFIvH8/layTrLjSrwWgJo1Y76gP4dGCg5+GFA5GyAZohkB4o9wJS00XyRi21pb4pPeHZncsJTG3sRDaeIr6zRpxyNICLgknDt3LJDX6uV1o4rthOtUBrohMdQAj4hksH5W2B8Y5csjFnRA4SSgPMEJbAc4JMVSxuPk6zvULSZOwhwmiEbU8AbCaBFsyZLTr+fsJeDOIHug5KGU/3AJW5gKoB3tvbivvd6UNeaRCY/G0lFDIPhhvNr8NmqqDqhzPH5sQHbs4NoZnDrwx99pdUpji6ze73AVSPMy6YZYyQG+g5d519tzhj3vCez4rdCDOG0pUhOVBvIAT6WALcDU2RLMhKF5A6KPslRrk0CryeAbiraDJyNHUyfBzyHrk+yUZaBGgdwlRuQOzP4/ZYInt0eRgNFaXTQyBPfAThzajXm+GPd5QXKTXcsLnppMI0f18KJJp57DsJmT+tXmL14vteu44ppCsbYhO3dAh4OAomcw9iv8js6FNy3iiyjxUoyDabcSJqbBEmBaFHKUjtAaiWnm3P9I0m5OmmBHssmsQbTwZM9hxQOKaQLPMBiO+dtXeA/fruDvfRBOzMXQJM2p9FhDOXlxSjl4daEpv3L7tsnvjkY53lcwNfUJ6s3HIos3tLBb08qgWkuGZhdLcObiTd0RhM/izD25l2LivdRp37Rzb/caxgPtvsEW32nlRMZLF+ZJRUGTJSBxQ6gQrQGiwaNGImk4GEN+CAF7Exb/E4081EcRGUOCRjjABYpesN4Vd/+36+2j3xhX3JaVDWQJk9s3i+D3eGCT0r3Xj7Z/8idy/wvlPnkHSeSiMe97bfqw9dvO5y+59VGVrWlISYyAXApDMU+G6pcmY4RXvE/H/pUGZWipFu78I2IbvxQ8wq2WOjYwIboj46BlAK9T1OZuuETgEoZqBSBYgnwZr9H1p4wgPoMsDcDRPLyLznQT9TGh7Xd/30iC4lkqQPwpvlL58nsoXVvtV62JSLd+kFrCl1dkaO5iAxQUujQb1s2InR+tfHiOI/9ex4P6zieIRwX8Ge2hL+5P8zvf6VRwKbN9VkvDaA4iHF+huJk6Ptr/n3C4wcMXPlyRr9mTQ+bn5EFUcgca935AUf+zeS/T6DT71QTIA3uFQB79mSHAJRK1oA1ZIAmzdLmNAtyPnkwbRzTdlai9FdO5tvEGiLg14xtl7qw0teWnLu2XZ79xPo2dqg5dFSxpDQEgn58YVE1JtpCb00KKjcurHK1njLgNz/fdGO3yn+5JeRy7m9sOxrm2jxALGSgTb15/zOz17Tq+sO7RXHJ251ATOVmhjPLEtm2j4rwXDhuVQmPwtQXqps5b2u1q5EV7gEJmGBaPjOB3pMBWjKAxnieUrHEds7S6YOB2uhr1RTn5rzrCw9yd6ODmYqlxgcssgEj4pmDr2/qDT+4tnNcZ1T0QCISpGnJ4XQ7Mb3ShzIl8WJJgf1rv7y4pO2kAc8+HyOc92j9l7rT+O/DqsPV0UWlXOsQnB6IakzPtKe/+uv7a9ekgF+1u7FkVweQUg1LmZyMQM5pvFwgksWCLJrgsDGGEsni+AKRoVXj2J8GeqkwQ4uqcihmzbUP9Pye57VxDCBZ0I+OlOUTqfAxOihgVIJjupd/52ePN+1a0RS7S7cHpqcouCAJBkC22RD0u+DSI3/WbeLNB74xrvNUAC8CcNm9a6JX/mJl+9nhOFdUPW1ZBAd8AT9KhJge7knf6Lh96juLOX9U8LJLw72AltHMac4ZA8sSZP/XJj6cm+ec6DVZOzUrM46xCsM4hZnXr08DB9PclI+U7CIFkTKs3wk8ycy3DK4Nsg4zqs3er5G1fn+hCKlHi3SXSp9aE7x7S8Ud17wY9wTPamhuB9esMJbJNig2B7R4zx9HPbfiCwcOfOO4eZUBOZxzPjGl6o/9sV5c9K3nDyDSnQActDzY8nClxX7UFmb0+aXO+/xzg1tWpPXbNYcwn8fJNCwvnm9Q/V/3M8i+NMVA79N7dEW6RpEIjJEZKmVmBkZtOjcdrj1bpEkaHF060KsBJO/yswnHe/1h98tcIrRoJjGqQLnn7JZw/bu749/7IGKbtv5AJzglh8iJiAogyAjY0m9/+Qzff359qXPbCK+3+8OsfEDAVc4n1benfvdmh332d188gHhPHuCagYoiBy4aZ+dXnFHQJJY6on+O61UH08ynUN6+z+1b/GrNcstKiR6ODTzzm893X8e6wHx+L5UYau0M420CnAKz1uBne6eD44jOsT3BsU/liBrc9AdH28zdDd3LP3Le0VatO08xAXau65cVyY3zMnrynbrwyOV1CfeaxpiV+SLupKlhMCyeVNR78wxl78Jqx08rC2wvnBTgezpTE3a1px5Z1W5f+tiqQ4hHUkdrfRkD44IKbppbiIvnFKHLAfy5C9gRUs0FUNmUfZ+ztFKv3MzgmQkmkx7IOFhel48FO/fbUXdmAaQaHMUSw7luAfNcgsnndL3c0ih6HTEssFfGDexIcXMmkJ4/NnN2ooG2zo/rQIHCcHWlggUM2L4viV+tbsPf9iUs50EdIeB1jssWjccXahimFeG2UYX2+08K8Nf2RCYcDGmPfNBtW7p8QwuStF6BKgI0f9MGakc68e1FRZg23oetBsO7kQyaUrqpTvIt2ODMnHV2xk25JzAGzeBIGCwbug+UzrIGQshb7GRRkgXuaAW4wCtiikOw9LsZ/lkA0StqL2UA78YMvBHVEdK5STnHHoMTkXQdlwgs9ilY5hSgdafw63XdeGJTKLtaS7DWsujA2bNG4KpRmjqtwnnbvCrXr04K8N9/0DmhJc4f2RJyLH1pyxGkYqo1mlnAZ45y4fYlxRg3yokNGY61MR0taW5Gf7m+mTPNYGYAM8EhYLSNgGfo0YG6hIEDqmGG7+TcTEtmzNTZphanQRKICo7KDjqvSGaYbBMw0yUgKDNTSVDJLP+wrBnYENfxekTH4QxdnQaDHRUiWcdqWn1uzAcgedMhi0CtU8Q5bgH+uI7fruvBL9b3gFONj6woG7XNqSnD+SP0+PgS2+031PofPWnAm6P8kS1hx9JXtvYDXNUxe3wAd5xbwcdUC2xVOI21MQ1H0tYkIMDNtTUC4GEMk+0C5rpFjLcxSIyhV+fYlTKwM2mgK0Mca4XpNJ65g363CWTRRwGnnHlQYRitiChVmKVMsjnz/M7Rdehb2xM63onqqFcN0+IHes7qw0DJvU90RLNjikPEhX4JVZqBx9f04L9WdYHTRelD6qwBTB9fikVBNT622Hn7N+YHTg3wrWHH0pf7A64BUypsiW8vCoQmjnU7NmmsYF1cR0vK6APczAAKMB3bfLeEyQ4BXoFZ+tYM0zkOpzkaVMN0bE6RWbmRfgyT43CyT/rILQJlkoBSRYArm0HsT0q5HM7mhI63ohoaVQNkjKcKOM2YqU4RlwZkjAXHo6t6cO+Kzn8AfMaEUiwOpuPjgo7bb5k7VIALIiDY4U3H1n1+UeDXN5wVnPl+TL9lkyaiPpzMKgZuJpe8IjPBXuKRTIskSiA/Q0+TUQjYnQF2p3R0aGZc2VfcJaul89Kcm2vnqRpDMQZZGw3KaJuAaW4RFRKzKvD9ECeAGGNYF9Pwt3AGrWmSjtmItC/hkh/k5kVLx9CL5XCJ2qi9cz0SilXDpJQH1/WjFAMgwJeUpuPjSxy333wqgDdF+SPbQo6lr2zLoxQCXHSgUE+s/d5FJY9dPK9g1htdma9vzIioDyX6OJwA94jAHLeMJV4J1TYBCjnMbMeTBkzr3pLQ0JwyoHNuLY3IAm8BTn6JAheataS7LS4mSjnXL5u8aqqyPM2fY6WwzrEyquGdcAa9GjedrfnZQCI4H+R8jskOul0kwGUscopwxTT8YX0vntgcAjeXOOdRStbCxxc5br9lyCiFbi4DzKl2JO69MNhbXak43ghrgTVRohTNBJU4nAAja6y0i5jrljDTJaFQFvqAbVMNbIpr2JTQ0ZbWQetu8nMgJojEz3nWazBkZaGAc3wy5npkcxYRVZiyMLt4loKfA6qO1REN2+Oayd//kModnEgxB5ksfIZHxhKXBGdcw+8J8E3/CPhpWTjJwoaI9sgHnbalz37QgmROh5ODSGlYUFOEH14yAlXlwGvtSawIqWg1k1YW4KbTNNeWMFQpAmpdEsY5JLOS00NOM65jezyDVo3yyxQsWU42p5b7UjH9ZjsNJOnwOR4Zk5yimWOhc4lW6FQCR+UcB1I6tsQ0NKZ0c+aQIeRrerOhAXxGfydKut8lMiz020xKYVENj7/fg19v7CcLDeDMmjJcUGXEp5Yot195xkmqlH1dfNL+zujvVoc8sx988wDi9CAqFVGzsnBqtQu3zAtg9lg3dho63uhVUZ/QTWWR/3BBztLLFAGj7BI8IkOPZuBgUkdbhnKBHHL/TFN+HqBPYROoHB5BwEi7gDEOyQyyejIcKvF8NsnlkwR4JIa4znEgqaEhpUMFUUo2Z5N3vf5GPlDoT9TnlRguCNhwtltGqDuNx9b34Jmt4WN1uAEsm1aOz4xFfE6F/fbZ1a6TUymdKT7+QEfi4dcOSct+9naTGAtR1TrLVxrHqKAN/2e6H5ee4UeXg+G5jhS2RVQ4SMr1AWiF1XQQ15I1WuUyy6mSVZLd0fkWdQwsiOldApuOapuIGpcEvyygVTWwN6EhTJEeGaxAuRYBoxwSgrKAzoyBuoSGHk3PtkWz4cNEd/7cOvqa1JRPYriyzIkFdhm7G+J4YkMvXt9PoX020jQDH46L51bh8xORmlftvG2EX3nkpHQ45zyws00/5z9XR696fkvbpzIG1UBUC5MMR1lAwlVT/fja4iAX/OAPNiaFlZ1ReCUhD/CjFJFbWZVb+24uO8suUM2PPXI3mVtHYjpPs7rD4RMZatyyad0ExO6EjoakhoRuWM/HMkta0kya5pbMmbMnqaE+SYNCA9uvCpVn7f3ByVl7RDNQoEi4dXwBny0Dz28Is8ff78SO9rRlMdQRGvC0gevOm4TbZ4p8UiG7zamID5wU4H0n37b5JijKA3D4XEiFLcB1joDPhiVVCv/KrMJ95VVK78OtsfFbU0JAMbS+FOdAuTrLUK1iJ4FI8s0y7nweOWqFlJIlXvZLAoiWKm2SCey+ZAb7EgS2VaSwaIyKBhwBmWGKS0a1XUJIM1AXz+BQSrfOs+JNM21wbNv9SN2cdRwaExBghnFTlbuxOsESD63uGPW3+rSrI0KAWyUnZjDIEHDZ3GDvnQscu2uC9v9mjL14SoCLt225UXYqv9Dtfncm3tunwdxeN8rtqjGr2PGjz36qcNMrPel/62CuBb2RCHRNt/Lh+SosjzCPUWEDvE83So7ORQ7XLmGCU8RIu4QCM5RnaEhpWBtOmxydv06R5CMZG3F7qULUQypGMGfB3kQGUZ1bxYpccTv3M3tDxww5swy4xO9FWTqRXDbCfe/293rrn94W/m6n4DwjEY1mCxAckmxD0OfESL/+zh1LA/deMta983ibJgykTPsGZ8GvGr7Sqxr/055xuLpzFR9TfdghImWcVe34w/evHrF/eyJz9aaMVLOnJ4J0xoo48w+zM3k9yr3sL4Fzmlo3uEkNywrtpgYmC6cIkpzY7ngGb3YnTZVDFpu/FCMnIxWRYaLToh9SGofTGjpVA3GNI24YSJoOhJluaSCxQhRIq7GmlhVjCo9FF1e4rp3l/tsOfHHk71mweDFPhqx1dDqHw+1ETYUffiP0x7e+/OMbgcfoIY0PPY4L+I/e6rjlYFh9cEO3U9i5r+Xo5i9ErLKAG2d6ja/ML+JwQHgjrLK3u1NI0rMx2Tg6B4DpR/PQzfnIPP9q9txSG1byapZXweUlTtMJkrama5HsbFV1/K0rgXUh1azk58gg14YpERlQZRMxxaOgIotqT9pAVOPoyug4ohrozuimxfdJ0Lz1h+SkaaDOGlWOs6WEdn6R8wvSl7futBWIT+gF5dO1UIcFuMbhKnDjgqllGCP1vupziDd975xg+ykD/t7+6C1bO1IPvNigCCs2NVH2yZqT5mI8AYvHF+Irc4uxYCTD2ngCTzTH0JXW4RAE05EdBTwvy2Q9SWOi0ve8qVXfMimDvlcgCZjvt+GCIgcq7BJiumFeyyEydGUMvNmVwKrelCkLc5rfvBanaNbKPpbbRMzy2TDToyBoE80gxlxnrnM0JDNYF1axN5bJlu+s9q2tDi0lRWnkKyeU88/Y0/oEl+2mmp817eB6+jdhR8n09tY2xrUMeAbwl3hw4/wRRq0n+troQv+XFo9kR04Z8IM9yYUr65Ofe2Bj4rytjfHR2WcTLFNkDD4bw5U1PnxnWRGiLoaHGsLYHU2bHJxfiLAEmWXiubJDLmVqiTArfUqWRYD7JBHz/DZcWOw0eTyRTZhQENKe1vFKRxzv9aQQzQ6ENaGsNnJWO8ktY1mhA9PcCgIyKXHLUdJ/7aqG1zsTeLc3hQj5nOz7dCfmTh+iiDKnA4uLnE1XFRhvVNhsv172m5Y2jWtXlxX5bswY4tS2OENP3IAdcZw92vXOhaPYs6OKPMvHFTJ6rPTUKIUe8bv0uSMVH9RHH0hy1+WxRBIGrarPHRkD80a7cc95xRhbacdfO+J4oyOBZgrzs1GnCXLW6+demyCb4FoWlXtNSSYaFtLmU902XFjiwASXnAXEUjPkBF9uj2NTRDVD+tzA5togpUIALi104FNBFypsopUmyObcKThLaAZW9aTw9+4EDqc0sxplxg8UI+gGit0uXDCyEGNS8bemSvrNY4q9tJGNftFDB5Rbzw9+vTmifXNnj4iDIQ7Ee7q8snTXD66vfH0yLVM/wWPix+VwE43PN9jPW2T8tpv7Plt3OIxU7ikvQkbVUV5sx5fn+PHZWh+iCsdTLTG822Ulsij/nbPqoxZuyRer2JAFPFutyTlNsvcCWcAkl4Rarw3VDpu5qL4llca2sIptkTQ604YZ7OQeI8lZOHEvvXdR0IVrytzmbImThMseREt0zpruFN7oTuBQMmOlF7JI0GcTAl58s8ZnjE9k3oynE9eOKigI5arA+5kAAAyZSURBVL7PeaJy3SE+bV2XDTu7gHRnS/KN7Vs3dP3kskFt+3FCwFc2xst2taae3JEKnPe7tY2IdYUBOy2DsjS5XRYwrdyG2+YHcM5UP1apwDNNEdT3hqFpOuz0oHveMrcPy5Dmv5/zrw7GMNIpo9opQ2TcTJDVxzVQQGKW1PLSAqZf5laCi8C7lACv8KBAEhHTDGv9JeXUJcE8563OBF7tiKNN1Uwqo9lFdDSyOEB0xq8IShsniuJyAL9ljH1oFf549DHQZycEnHNesqkl9dO3DvEr73/viLOjM86M3NIqQkYzIEkCvnhmIb4+z69pTh55/kgU73UmfeEMF80q0CApJUcvZrktO0o0SygJRm9kCJTs+6a66HddoqYcpSwpdOKSoBtVTikvk0KL6RnCGQOvt8fxZmccIXrkmRJu1I4sY1Gp31js1JqmBxx3VckyBTDxk3lo6kQDMBjA7Z0pbc6Tm9VPv7C98wuNYcHb1kuzJ5sSpPnIGebXBHHJGN56/jjPA+tFXVnXGrmtFfZAdzhs6mWK7iz9nU8jx742KSVb2KTzyOpyuXJ6mwQSDUBu+vd3xtRCriAxwi5jVoENM3wOjHUpZtaPBuOIqmFXTMW67hR2RVVkDMNUJB63C2OLA8YkQdu61M8fmCcar7LjrC85EbAf9vkJAc998akNnZceieEP7/Z43K+/vz+bgM4+rUSbvBT6UCjGDo/xOu/7/pVFtv1R9btrM3LRyqZ2a6F7nhPtfzOm7tW5aWFelxNMEKBmNCSTCXNhEX03F4qf6IatQbM4udgmYrLHhgkeG9xm6tZAY0LD3qiKwykdcaIaziErNhTZpURtwL6j2NCe+tdxRR/ZJsAnuv8+bOIp7cK69vQvn9nHKx9+t1HUyLL74mRAMBjsCtJLR7ravrkgIIwpV0pXRFXp+UMhtFNemlsJpPwGcyBSp8ly7SI0J2OqDsZTBhcNBofGBWi61ve9fBrJH7h8xWOyTnbPGocgmpV3kzZINuoUsVp8Tb/LkozxpUUoSYVby7y2f1d6w6/eNn1Un5M8VUs+bQvnnI/piBnnPrY5cf3Lu3oX1LWpSJjrVbIQEhfKMiaVF+DTZ/jwmfEinC4D7/Yk8de2KA7GM2Zdk+RXX86cMSQpI+ew4dxyL0ZI+uYPwrHfHE5lQqWibVKZXf5mh6PAs6HxMCMHbBPNimj/WvOHYkKDTMAS9+eWQ1uxG9GVAVlWUBXw82un+nhlV6J7vI1dHvQ6B/Vw1KkOxKAtnBpYvpyLtprwo3vinpseW9eBg/XtgI12yMw2bz6rxzGqxI7ran343DQ/7G5uBhnrowaaVR3dsSR0PdOXB/c6bFhQUYQbqu0oi+sr/7Qldu+hlK/7knGJ0rSdX7XKsM1+Y9/hmjgTmJBn6YPtcE7x5M4nvqZFpAGvB650nJfY5LqbppWGZnDW6pKFnzLGNg722qdy3kkBTg1EU/pDW3vYzT9f3Sv+dVu7mazqS0hkpSITGCZQkaLWh09P9UFxAZvCKf21joSxK5yUohpn5ByJa2cX2I1rqvz6NLdD3NaQiDy1NdogOr2Z0XJ825mjxeV1HtvCXe2h7zfDLnaGwpCIz3M9HegBTPpsgMch6NaoIEKaxCHLqC0rMoJqZJdTZHdfN6G4rtraGaSt/8NipwLq8b5zUoDTxl8Azm5JGteuPhC/7sV6UXzu/SYYac2qYPeZkeW1JpfIuGpGKc6qYlpBsfzM673R5oMR/ao2XZlQH02YRYJaF3/7y5X+91pb9LP+fkRcuqFDANMFuNIt7UurPL+7cIarem8yfdVrEV3Y0h4CVdH7qkqDBNxc26hzpMEwujiAGQV2PsIurwxoiSeuq/AuZ4yZ+5QNx3FSgOduiHM+Pazq//F6I5b+Yk2nf3NjFIkE7R+Yt4dUtvQ0srIQ84r1dMAh3X3+Gb46r5d/95DsmrOhiwIjjhH2zO+mpsVnH1kVueFgXL6usVdFOppEcYGMSye58ZVZPhSU2LC8I4XXWiOIpVKmDDlayvtHmMywyKx8WbPIqcgocjtRZBdJImrjhPT+iR7HfTMKHL8fDpCPce6n0mB2G6VJh6LGv756IH39k5vC4sY9neainb4lTrkVPZIEv4MbfkXafX2tP3LDbO+E4kJ7oDmZQZeq0/K1pnhIb/7+a91V7+6PVZE1QtMgKArGV/jwnUV+XDTJxtfH0safDkdQ1xsXVZ0K1taM6sv65tVGGROsNS607YbAMMJp4wvKC4wlQRv8Bt+qJ9UfTfKnVzDm7z2V/p/Od07Jwo9aembR+63aV1/ek7r83UbuXL+vDTyTObrPCJ1IYThn8BX6MLfag/mlHHPKREwO2lHslyAIAta0Ave8cQQrt2WfN6SZQiuBKIJdWIYbpiitNrfwl4cOdRfsDqeuyCgOu6GmLOmXTUwRN2cMSjXIqCjw8lKnDSPcDox2CjC6e44EPc5XLitS4hCEnQCePFGS6XRAHTIOH+hCjao6aVeDeu/6Tvmcl3b0+Pa0xpBKqtlHzI7+7QUmiObaEyqBTQ0quHiiB2eNcSGuAS/WxfDy7ghaulJHd1gz86QC5owNotav1p0/1vODeo9avaNX/XHYHVDC4bAlMbNbeVCVh9IILJPmdsFoH22XE7OCAcwvkOBj7BVZEH4IgCya/n7PkO62eTKDc1oWnmtod2doZiTluXn9keTnl9ep4rodLTBEAeZGprkWsgqGZKNoEzGSFkcWKObUb+xN43BEQ9Iq0VuHyRUMbllGtZ/1fHtJYOOySU7/tiRm7tYUdCUS8EqiGUw5RIFoA+NcQFco3tUUVX+SMLS6pZUlmGYzr9bEGNtzMsB8VOcOCeAmPpzP23E4fuvaDunCdw8b/rUNUTS3heivXxy19lwvsg7VlG+0XM2sIFjByTEH/Z7IoLjcj1uXVGJZRaKhpNj511VHwkoooysFdtEMpjwQMbnIiXEOmkVCA4BfDmWGbyjBH0rAaUuCsfGMfPe7LZmzf/JWJ9vcFPHrTJZSasbavi23ZjiX8MhVk/N3aujfu4wBp9+DqWUujPPpz3++NnCnvzDesqk+lan02aRAgL4QwFzzp3nojDF6vOuf8hgywHO945zP6QGqb3mu09UbS3w1JhXMfv9Al8DDMXCqvph51Tws+pfu+8NkUrkERWI4c0zRrmvG49ULyu0/r652UpDSf078U4Kcf1NDDnj+xe9f0/2l5pj0xZZoZnZ3SmI726Jo64yCpzPZxyUG2bxVGcacKSNwTkXGuOyMggfmBCXan2TbiTYT+GcbgUH2+NRuu41zV6Qb53fF4z/cF5Mqn36/TdzRpjoiCUrHan1Pn53w6llyp61JF44twL8tCUSXVbDnVVG4w8OOv5nACa89zCd8pIBnnakbwAV7Uih4dmXn6DQ3vnQo7Qu8ue0Q64zRXyo5iX0+UhoqKgrw3YurMNOZeMsvOG+cWMWOu5nAMON5wuY+csDz74BzXra/U/3m03v5xU+uPlTTHOWM69rATyYMdOuaAYfXhXmjC1Auhpc/vTdxE+6qOWZnohP2+H/5hGEFPGvxlWc90Xrr1ubIt6NwiFoyNnjAiVokO2wOGxw88ZcZAe+33r6l7PBQbaY+HGMxrIBvaIiVHlZx9mMbkteu2NNxYYYpgq4Pco9Fg8PcA4mqyJqAGTW+xocv9K2YW+WiqvrK4QBrKNoYVsBf3hmf3RROPbaux1n7p/VN0JPZhzuP4Z3cAz7ZaDMb4ts9DvgcCgrsAgpcAi4Z70lfPUmqG1tou48x9txQgDEc1xhWwG/5S9vcnlT6t41a0aT1uw/BoD/BaG6bme2qqdGtMpr5j9Lq9MygLKKq0KHXBO3G7GovFo6xo0TSN/gl46flfmUjY6xlOMAaijaGFfCiH+6ZZej4VdrmmxWLUNhvbUDIsn8CADYF7oCXl7hljPDJqPQr5kYKsa4u3hrJPF9kkw5cWBvE+dWUsRI2M8bo76l9rI5hBbzwrro5GsPjaVfFFDUaos154ZQFOBUBHpsINR6lx2SbKz1CprbcjtlVHpwzxQWHzup9ongnU9iGjxW6A9zssAJ+1TP1c3pTwuOHWXBi45FuVPkETCmxYWKZG7OqFES6ere/uSf6X5GE0blgrB0XTPSjttTcaoxWHtEfMRryvxw13AM4rID/8O3e6u64eu2GLmXk9kPtmFwkY/EoJ+aMDuCC8TLcgkB8/JvhBmE42xtWwPldXHjtzgPyb39uF9ahGfNG0NaqlZg3bwSsHVbN5b79d+QYTjw+8raGFfCPvDcfgwY+AXyYB+kTwIcZ8P8H/yl9jujdDYEAAAAASUVORK5CYII=;labelPosition=center;verticalLabelPosition=bottom;align=center;verticalAlign=top;spacingTop=-5;fontStyle=1" parent="1" vertex="1">
          <mxGeometry x="412" y="528.75" width="58.08" height="61.5" as="geometry" />
        </mxCell>
        <mxCell id="4yvTIxeOU97vgJ16sdvQ-6" value="&lt;b style=&quot;font-size: 14px;&quot;&gt;&amp;lt;prj&amp;gt;-&amp;lt;env&amp;gt;-group&lt;/b&gt;&lt;br style=&quot;font-size: 14px;&quot;&gt;&lt;div style=&quot;font-size: 14px;&quot;&gt;&lt;span style=&quot;font-size: 14px;&quot;&gt;Resource Group&lt;/span&gt;&lt;/div&gt;" style="aspect=fixed;html=1;points=[];align=left;image;fontSize=14;image=img/lib/mscae/ResourceGroup.svg;labelBackgroundColor=none;labelPosition=right;verticalLabelPosition=middle;verticalAlign=middle;spacingRight=0;spacing=2;spacingLeft=10;spacingBottom=0;" parent="1" vertex="1">
          <mxGeometry x="170" y="339" width="50" height="40" as="geometry" />
        </mxCell>
        <mxCell id="4yvTIxeOU97vgJ16sdvQ-14" value="&lt;b style=&quot;font-size: 14px&quot;&gt;&amp;lt;prj&amp;gt;-adu-&amp;lt;env&amp;gt;&lt;/b&gt;&lt;br style=&quot;font-size: 14px&quot;&gt;Device Update" style="text;html=1;resizable=0;autosize=1;align=center;verticalAlign=middle;points=[];fillColor=none;strokeColor=none;rounded=0;labelBackgroundColor=none;fontSize=14;" parent="1" vertex="1">
          <mxGeometry x="380" y="586" width="120" height="40" as="geometry" />
        </mxCell>
        <mxCell id="4yvTIxeOU97vgJ16sdvQ-15" value="2" style="ellipse;whiteSpace=wrap;html=1;aspect=fixed;fillColor=#4D9900;strokeColor=none;labelBackgroundColor=none;" parent="1" vertex="1">
          <mxGeometry x="390" y="390" width="23" height="23" as="geometry" />
        </mxCell>
        <mxCell id="4yvTIxeOU97vgJ16sdvQ-16" value="3" style="ellipse;whiteSpace=wrap;html=1;aspect=fixed;fillColor=#4D9900;strokeColor=none;labelBackgroundColor=none;" parent="1" vertex="1">
          <mxGeometry x="240" y="511.5" width="23" height="23" as="geometry" />
        </mxCell>
        <mxCell id="4yvTIxeOU97vgJ16sdvQ-17" value="4" style="ellipse;whiteSpace=wrap;html=1;aspect=fixed;fillColor=#4D9900;strokeColor=none;labelBackgroundColor=none;" parent="1" vertex="1">
          <mxGeometry x="389" y="511.5" width="23" height="23" as="geometry" />
        </mxCell>
      </root>
    </mxGraphModel>
  </diagram>
</mxfile>
